# xmcd
#
# Track frame offsets:
#	150
#	19590
#	41711
#	61849
#	81389
#	109803
#	131548
#	154630
#	180158
#	212456
#	232578
#	257976
#	279685
#	308610
#
# Disc length: 4503 seconds
#
# Revision: 0
# Processed by: cddbd v1.5.2PL0 Copyright (c) Steve Scherf et al.
# Submitted via: EasyCDDAExtractor 12.0.4.1
#
DISCID=ad11950e
DTITLE=Pete Brown and Phil Ryan - Road of Cobras
DYEAR=2010
DGENRE=Blues
TTITLE0=Flag A Ride
TTITLE1=Livin on the Edge
TTITLE2=Between Us
TTITLE3=Klip on Weirdness Kit
TTITLE4=The Ballad of Psycho and Delia
TTITLE5=Tell Me
TTITLE6=Men Only
TTITLE7=13th Floor
TTITLE8=Scroll On
TTITLE9=When Love Has Wings
TTITLE10=Moving Target
TTITLE11=Didi
TTITLE12=Sneaky Spot Trading Man
TTITLE13=Couldn't We Try Again
EXTD=
EXTT0=
EXTT1=
EXTT2=
EXTT3=
EXTT4=
EXTT5=
EXTT6=
EXTT7=
EXTT8=
EXTT9=
EXTT10=
EXTT11=
EXTT12=
EXTT13=
PLAYORDER=
